# xmcd
#
# Track frame offsets:
#	150
#	14548
#	29015
#	40180
#	55370
#	67703
#	88108
#	108973
#	123463
#	139873
#	157183
#
# Disc length: 2281 seconds
#
# Revision: 13
# Processed by: cddbd v1.5.2PL0 Copyright (c) Steve Scherf et al.
# Submitted via: audiograbber 1.83.01
#
DISCID=9708e70b
DTITLE=Arne Domnerus and Gustaf Sjökvist - Antiphone Blues
DYEAR=1975
DGENRE=Jazz
TTITLE0=Almighty God
TTITLE1=Nobody Knows The Trouble I've Seen
TTITLE2=Sometimes I Feel Like A Motherless Child
TTITLE3=Antiphone Blues
TTITLE4=Jag vet en dejlig rosa
TTITLE5=Träumerei
TTITLE6=Come Sunday
TTITLE7=Heaven
TTITLE8=Eintonigt hell klingar den Iilla klockan
TTITLE9=Der signade dag
TTITLE10=Largo
EXTD=
EXTT0=
EXTT1=
EXTT2=
EXTT3=
EXTT4=
EXTT5=
EXTT6=
EXTT7=
EXTT8=
EXTT9=
EXTT10=
PLAYORDER=
